<?xml version="1.0" encoding="UTF-8"?>
<svg id="Layer_1" data-name="Layer 1" xmlns="http://www.w3.org/2000/svg" width="1007.5" height="1032.05" viewBox="0 0 1007.5 1032.05">
  <defs>
    <style>
      .cls-1 {
        fill: none;
        stroke-width: 5px;
      }

      .cls-1, .cls-2 {
        stroke: #fff;
        stroke-miterlimit: 10;
      }

      .cls-3 {
        fill: #6aa329;
      }

      .cls-4 {
        isolation: isolate;
      }

      .cls-5, .cls-2 {
        fill: #fff;
      }

      .cls-6 {
        fill: #101806;
      }
    </style>
  </defs>
  <path id="Cutout" class="cls-2" d="M989,872.4h-199.9c-16,0-24.2-19.4-13-30.8,86.9-87.8,141.9-217.5,141.9-362.2C918,214.9,734.3.5,507.7.5S97.5,215,97.5,479.5s55,274.4,141.9,362.2c11.3,11.4,3.1,30.8-13,30.8H18.5c-9.9,0-18,8.1-18,18v85.9c0,9.9,8.1,18,18,18h970.5c9.9,0,18-8.1,18-18v-85.9c0-9.9-8.1-18-18-18h0v-.1Z"/>
  <g id="Box">
    <path id="Box_background" data-name="Box background" class="cls-5" d="M510.8,459.7c-.5-.3-3-.8-3.6-.8-19.9-.5-293-80.2-310.1-64.9-17.1,15.3-.6.9-1.1,1.2l-72.7,58.2c-13.6,10,28,27.2,88.6,42.4,2.1.5,9.3.9,8.5,3s-.4,1.5-.3,2.4l25.4,237.5c.3,2.1,1.6,3.7,3.4,4.3l250.1,90.2c2.2.8,4.3,0,5.2,0,1.3,0,5.4-3.4,5.4-6.3l.3,1.7c0,2.5,2.2,4.3,4.8,4.6s3.3-.3,3.7-.6l254.4-90c1.7-.6,2.8-2.1,3-3.9l25.6-238.6h0c-.6-5.5,1.8-3,6-4.9,60.6-15.3,104.5-32.5,88.9-43.7h0l-81.4-65.1c-.9-.8-2.1-.9-3.1-.8l-300.8,73.6"/>
    <g id="Box1">
      <path class="cls-6" d="M181.7,414l-16.3,13.3-16.3,13.3-16.3,13.3c-7.9,5.8-.6,11.8,17.8,18.4s37.9,12.6,74.7,21.2c7.5-.9,3-1.8,9.1-.3s167.3,43.4,174.4,45.5,2,.3,2.8.2,1.8-.5,2.7-.9c3.9-2.4,10-6.9,17.4-12.7,7.3-5.8,16.2-13.3,25.7-21.4s21.9-18.7,30.2-25.7c8.4-7,11.4-9.4,13.9-11.2s1.8-1.5,2.5-2.4.9-1.4-.2-2l-1.5-.6c-.8-.3-2-.6-2.7-.8-7.5-1.2-25.1-5.7-48.2-11.7-23-6-52.1-13.8-81.9-21.4s-63-15.9-90.8-22-51.8-10.3-66.3-10.9c-1.8,0-3.6,0-5.2.5s-3.1.6-4.5,1-2.4,1-3.1,1.5-2.4,2-2.4,2l-15.4,13.3v.5h-.1,0Z"/>
      <path class="cls-6" d="M888,453.7c0-.1-.3-.5-.6-.6l-37.4-31.3-36.4-30.4c-.8-.6-1.7-.8-2.5-.6l-144.1,35.2s-105.7,26.3-143.2,35c0,0-3.1,1-3.7,1.5s-.6.3-.6.6l-.5,1.2v1.2c0,.5.2,1.2.5,1.8s1.8,2.4,2.1,2.7l40.3,30.8,39.5,32.3c1.3,1,4.9,3.6,7,5.2s6.1.6,7.6,0c9.4-3.1,31-8.5,58.7-15.7s61.5-16.6,95.2-24.4l13.9-3.6,12.1-3.1,2-.5s1.2.3,0,0c.8.3,1.7.5,2.4.5s1.7,0,2.4-.2l4.6-1.3,4.6-1.4c9.6-2.4,12.7-3.3,15.3-4.3s4.8-2,12.4-4.3c9.7-3,19.3-5.7,27.4-8.5s15-5.4,18.9-8.1c2.4-1.8,3.9-3.7,4.2-5.4s-1.3-3.7-2-4.6v.3h-.1Z"/>
      <path class="cls-6" d="M232.6,498.6h-1.8c-2.7.5-4.6,2.8-4.3,5.5l24.5,232.1c.3,2.1,1.6,3.6,3.3,4.2l243.4,87c.5.3,2.5,1,5.4,1s3.9-4.2,3.9-6.9v-350.2c0-.5-.6-.8-.9-.5l-90.8,72.3c-1.2.9-2.5,1-4,.8l-178.5-45.3h-.2Z"/>
      <path class="cls-6" d="M610.5,544.1c-1.3.3-3.9.3-4.8-.6,0,0-1.8-.9-2.5-1.7l-24.7-20.2-51.8-41.3-12.4-9.7c-.5-.3-1,0-1,.5v353.2c0,2.5,2.2,3.7,4.6,3.7s3.4-.9,3.9-1.2l246.3-86.2h.3c.5-.8.8-1.3.9-2.2l25.1-237.8h0c0-1.2-.9-2.2-2.1-2.2h-.5l-178,45.2h0l-3.4.6h.1v-.1Z"/>
    </g>
  </g>
  <g id="Brain">
    <path id="Brain_background" data-name="Brain background" class="cls-2" d="M423.7,39.2l-153.9,86.6c-10.8,6.1-18.4,16.6-21,28.8-12.7,62.8-34.5,82.9,5.4,143,5.8,8.7,14.5,15,24.7,17.5,72.4,18.9,93.4,13.3,138.3,77,10,14.2,27.7,21,44.8,17.1,33-7.8,77.6-31.2,101.6-42.6,6.9-3.1,14.4-4.6,21.9-3.9l107.8,9c4.3.3,8.7.1,13-.9,72.2-16.2,107.8-98.3,70-161.9-15.3-25.8-36.3-52-57.7-88.7-4.5-7.6-11.2-13.8-19.3-17.5-100.4-46.2-151.4-89-275.6-63.5"/>
    <g id="Electrods">
      <path class="cls-3" d="M425.8,216.5c-1.5-5.1-5-6.9-7.5-7.5-.9-.1-1.8-.3-2.7-.3-3.5,0-7.2,1.5-9.4,4.1-1.8,1.9-3.6,5.4-2,10.3,1.5,5.1,5,6.9,7.5,7.5,4.2,1.1,9.3-.6,12.1-3.8,1.8-1.9,3.6-5.4,2-10.3h0Z"/>
      <path class="cls-3" d="M352.3,171.9h.1c-2.4-2.1-4.6-2.7-6.7-2.7s-2.5.3-3.6.6c-4,1.5-7.5,5.7-8.1,10-.5,2.6,0,6.4,4,9.6,4,3.4,7.9,3,10.3,1.9,4-1.5,7.3-5.7,7.9-9.9.5-2.6,0-6.4-4-9.6h.1s0,0,0,0h0v.1Z"/>
      <path class="cls-3" d="M427.9,142.7h0c-.5,2.7,0,6.6,4,9.7,4.2,3.4,7.9,3,10.5,1.9,4-1.6,7.3-5.7,7.9-10,.5-2.6,0-6.4-4.2-9.6-2.4-2.1-4.6-2.7-6.7-2.7s-2.5.3-3.6.6c-4,1.5-7.5,5.7-8.1,10h.2v.1h0Z"/>
      <path class="cls-3" d="M525.6,215c-2.4-2.1-4.7-2.7-6.7-2.7s-2.5.3-3.6.6c-4,1.5-7.5,5.7-8.1,10-.5,2.6,0,6.4,4,9.6,4.2,3.5,7.9,3,10.5,2,4-1.6,7.3-5.7,7.9-10h0c.5-2.4,0-6.3-4.2-9.4h.2v-.1h0Z"/>
      <path class="cls-3" d="M456.2,313.4h0c4-1.5,7.3-5.7,7.9-9.9.5-2.5,0-6.4-4-9.6-2.4-2.1-4.6-2.7-6.7-2.7s-2.5.3-3.6.6c-4,1.5-7.5,5.7-8.1,10-.5,2.5,0,6.4,4,9.6,4,3.5,7.9,3,10.3,2h.2Z"/>
      <path class="cls-3" d="M729.6,311.5c4,3.5,7.9,3,10.5,2,4-1.6,7.3-5.7,7.9-10,.5-2.5,0-6.4-4.2-9.6-2.4-2.1-4.7-2.7-6.7-2.7s-2.5.3-3.6.6c-4,1.5-7.5,5.7-8.1,10h0c-.5,2.7,0,6.6,4,9.7h.2,0Z"/>
      <path class="cls-3" d="M608,122.9c-1.5-5.1-5-6.7-7.5-7.3-.9,0-1.8-.3-2.7-.3-3.6,0-7.3,1.5-9.6,4.1-1.8,1.9-3.6,5.2-2,10.2,1.5,5.1,4.8,6.9,7.3,7.5,4.2,1.1,9.3-.4,12.3-3.8,1.8-1.9,3.6-5.4,2.1-10.3h.1v-.1Z"/>
      <path class="cls-3" d="M616.9,297c-2.1,0-2.5.3-3.6.6-4,1.5-7.5,5.7-8.1,10-.5,2.5,0,6.4,4,9.6,2.1,1.8,4.5,2.7,7.2,2.7,4.7,0,9.1-3.8,10.8-8.7,1.5-4.4,0-8.5-3.6-11.5h0c-2.4-2-4.7-2.7-6.7-2.7h0Z"/>
      <path class="cls-3" d="M345.8,263.4c4.6,0,9.1-3.8,10.8-8.7,1.5-4.4,0-8.5-3.6-11.5-2.4-2-4.6-2.7-6.7-2.7s-2.5.3-3.6.6c-4,1.5-7.5,5.7-8.1,10-.5,2.5,0,6.4,4,9.6h0c2.1,1.8,4.5,2.7,7.2,2.7h0Z"/>
      <path class="cls-3" d="M635.1,230.2c-.9-.1-1.8-.3-2.7-.3-3.5,0-7.2,1.5-9.4,4-1.8,2-3.6,5.4-2,10.3,1.5,5.1,5,6.9,7.5,7.5,4.2,1,9.3-.6,12.1-3.8,1.8-2,3.6-5.4,2-10.3-1.5-5.1-5-6.9-7.5-7.5h0v.1Z"/>
    </g>
    <path id="Brain_foreground" data-name="Brain foreground" class="cls-6" d="M780.5,215.2c-.6-1.2-2.8-1.4-3.8-.3l-22.3,23.1c-1.3,1.4-4.3,5.2-5.1,8.2l-7,39.7c0,1,.5,1.8,1.2,2.4,1.2,1,1.2,1.5,2.4,2.4,4.5,3.6,6.6,8.4,5.8,13.8-.9,6-5.2,11.4-10.8,13.5-1.8.6-3.5,1-5.2,1-3.5,0-6.7-1.2-9.6-3.8-4.5-3.5-6.4-8.4-5.7-13.8.9-6,5.2-11.4,10.9-13.5,1-.5,2.1-.6,3.2-.8,1,0,1.8-.9,2-1.8l7-40.8v-.3c1.2-4.4,2.8-7.6,4.3-8.8l24.9-25.6c1-1.1,2.5-2.9,2.1-3.8-.5-.8-35.8-49.8-57.2-86.5-4.5-7.6-7-9.1-13.6-14.4-2.5-1.5-2.1-2.4-6.6-4.5,0,0-5.1-3.2-5.1-1.5l-9.6,129.2v.4c-.6.8,0,6.9-9.4,9.9h-.2l-23.4,2.5c-1.2,0-2.1.9-2.2,2-.3,3-1.8,4-3.9,6.3-3.2,3.5-8.1,5.5-12.7,5.5s-2.5,0-3.8-.5c-5.2-1.2-9.1-5-10.8-10.5-1.8-5.4-.8-10.6,3-14.7,4-4.4,10.6-6.4,16.5-5.1,4.8,1.1,8.5,4.4,10.3,9.1.3.9,1.2,1.4,2.1,1.4l19.3-1.6h0c6.7-1.5,8.8-3.4,9.7-10.6l9.4-124.5c0-1.5-7.2-5.1-6.6-4.8-26.7-12.9-50.3-25.2-73.4-35.4h-.3c-.3,0-.5.3-.5.6l-3.6,49.2c0,1.2.6,2.7,1.8,3,5.2,1.2,6.7,4.2,8.4,9.7,1.8,5.6.8,10.8-3,14.7h0c-3.3,3.3-8.1,5.4-12.9,5.4s-4.5-.6-5.7-1.1c-5.2-1.2-7-4.4-8.7-9.9-1.8-5.4-.8-10.5,2.8-14.5,2.7-2.9,6.3-4.8,10.2-5.4,1-.1,1.7-2.1,1.7-3.1l3.8-50.9v-.3l-.3-.3h0c-22.8-9.7-65.5-19.2-76.6-21.6-1.3-.3-3.9-.5-3.8.8.8,15.9,5,101.9,5.5,112.8.2,4.5-.2,6.3-2,8.8s-2.7,3-4.3,4.2l-87.2,54.7-.9.6c1,4.9,0,9.4-3.5,13-3.1,3.4-8.1,5.6-12.7,5.6s-4.5-.5-6.3-1.2h0c-4.6-2.4-6.6-4.4-8.2-9.7-1.8-5.4-.8-10.6,3-14.7,4-4.4,10.6-6.4,16.5-5.1,2.7.9,4.8,2.2,6.4,3.9.8,1.1,2,3.4,3.6,2.6l85.3-53.3c4.2-3.1,5-6,4.7-9.3l-4.8-112.7c0-2.1-1.3-2.2-2-2.5s-54.2-.6-89.3,6.6c-.1,0-.5,0-.6.3-1.4.8-2.1,2.1-2.2,3.6v1.7l-3.9,39.1c0,.9,0,1.5.6,3l19.5,39.4c.5.8,1.2,1.4,2.1,1.2,3.8-.3,7.2.9,10.5,3.6,4.5,3.6,6.6,8.4,5.8,13.8-.9,6-5.2,11.4-10.8,13.5-1.8.6-3.5,1.1-5.2,1.1-3.5,0-6.7-1.2-9.6-3.8-4.5-3.4-6.4-8.4-5.7-13.8.6-4.8,3.6-9.1,7.8-11.8.9-.6,1.4-1.8.8-2.9l-19-39.1c-.5-.8-.6-2.6-.6-3.6.5-4.2,2.7-27.3,3.6-37.2.1-1.8-1.8-3-3.3-2.1l-143.7,80.9c-10.8,6.1-18.4,16.6-21,28.8-4,19.6-8.8,35.1-12.4,48.9s.5,4.2,2.4,5.1l21,10,19.6,9c.5.1,1.2,1.1,4.5.8,2-.3,2.9-.6,6.3-3.1h0l21.6-18.7,18.7-15.1c.5-.3,1.4-1.4,1.5-1.9,0-.4-.5-1.1-.8-1.5-.9-1.5-.9-1.9-1.4-3.6-.3-1.6-.5-3.4-.1-5.1.5-3,1.8-5.8,3.8-8.2s4.4-4.2,7.2-5.2c2.5-.9,5.1-1.2,7.6-.8s5,1.6,7,3.4c2.2,1.8,3.9,3.9,4.8,6.1s1.2,4.8.8,7.5l-.6,2.7h0c-.8,2.4-2.2,4.6-3.9,6.4-1.8,1.8-3.9,3.3-6.1,4.2-.9.3-1.8.6-2.7.8s-1.6.3-2.7.3-2.5-.1-3.8-.6c-1.2-.3-2.4-.9-3.6-1.6-.5-.3-.9-.3-1.4-.3s-.9.1-1.2.6l-23.1,19.2-20.1,16.6c-.3.3-3.8,3-7.3,3.9-3.6.8-7.6-1.1-8.1-1.2l-17.8-8.4-20.8-9.7-1.5-.9h0c-1-.6-2.4,0-2.7,1.2-5,24.9-3,46.5,20.7,82.1,3.6,5.2,10.6,10.8,13.2,12.6s1.2.3,1.8,0l61.1-50.4c.8-.6,1-1.6.8-2.5-.8-2.2-1.2-4.5-.8-6.9.9-6,5.2-11.4,10.9-13.5,5.1-2,10.3-.9,14.7,2.7,5.2,4.2,7.2,10.3,5.1,16.5-2.2,6.7-8.4,11.5-15,11.7-3.9,0-7.3-1.4-10-3.8-.1,0-.3-.3-.5-.5-.8-.8-2-.8-2.9,0l-59,48.1c-.6.5-.5,1.5.3,1.8,1.6.6,3.9,1.4,5.2,1.6,57.1,14.8,80.9,13.2,111,43.8,1.4,1.4,3.5.6,3.8-.5l2.5-13.2c.8-5,1.4-6.6,3.8-8.4,0,0,30.4-16.8,38.5-24.9s.3-1,.3-1c-2.1-5.8-2-4.6-1.2-10,.9-6,5.2-11.4,10.9-13.5,5.1-2,10.3-.9,14.7,2.7,4.5,3.6,6.6,8.4,5.7,13.8-.9,6-5.2,11.4-10.8,13.5-1.8.6-3.5,1-5.2,1h-3.1c-2-.3-3.6-1.5-4.4-2.1-.3-.1-.6-.3-.9,0l-38.4,24.4c-1.5.9-2.5,2.4-2.9,4s-.5,2.4-.9,4l-3.3,16.6v2.2c6.3,7.5,10.9,14.2,18.4,24.9,10,14.2,27.7,21,44.8,17.1,31-7.3,72.4-28.5,97.3-40.5,1.2-.6,1.7-2.1.9-3.3l-42.1-62.9c-2-2.7-3.6-9.9-3.5-13.2v-48.9c.2-.9-.5-1.8-1.2-2.1-1.8-.6-3.5-1.5-5.1-2.9-4.5-3.4-6.4-8.4-5.7-13.8.9-6,5.2-11.4,10.9-13.5,5.1-1.9,10.3-.9,14.7,2.7,4.5,3.6,6.6,8.4,5.8,13.8-.9,6-5.2,11.4-10.8,13.5-.8.3-1.3.5-2.1.6-1,.3-1.8,1.2-1.8,2.2l.5,48.4c0,2.1,2.5,9.9,3.5,10.8l41.7,64c.6.9,1.7,1.2,2.7.9,5.8-2.1,12-3,18.1-2.4l46.6,3.8c1.5-.1,1.3-.6,1-1.4l-15.1-40.5c-.3-.9-1.3-1.5-2.4-1.5h-.8c-3.8-.8-5.4-2-8.5-3.8h0c-4.5-3.6-6.4-8.4-5.7-13.8.9-6,5.2-11.4,10.9-13.5,5.1-2,10.3-.9,14.7,2.7,5.2,4.2,7.2,10.3,5.1,16.5-1.3,3.8-2.7,6-5.7,8.1-.9.6-.9,2.5-.5,3.5l16,42.9c.3.8,1,1.4,2,1.5l50.1,4c4.3.3,8.7,0,13-.9,69.8-15.6,106.1-92.8,74.3-155.3l-1,.4h0l.3.4h0Z"/>
    <path id="Brain_outline" data-name="Brain outline" class="cls-1" d="M423.7,39.2l-153.9,86.6c-10.8,6.1-18.4,16.6-21,28.8-12.7,62.8-34.5,82.9,5.4,143,5.8,8.7,14.5,15,24.7,17.5,72.4,18.9,93.4,13.3,138.3,77,10,14.2,27.7,21,44.8,17.1,33-7.8,77.6-31.2,101.6-42.6,6.9-3.1,14.4-4.6,21.9-3.9l107.8,9c4.3.3,8.7.1,13-.9,72.2-16.2,107.8-98.3,70-161.9-15.3-25.8-36.3-52-57.7-88.7-4.5-7.6-11.2-13.8-19.3-17.5-100.4-46.2-151.4-89-275.6-63.5"/>
  </g>
  <g class="cls-4">
    <g class="cls-4">
      <path class="cls-6" d="M124.4,980.1h-14.98v-91.03h14.85l50.53,67.92v-67.92h15.36v91.03h-15.36l-50.53-67.16.13,67.16Z"/>
      <path class="cls-6" d="M208.76,889.07h68.24l-2.09,15.62-51.23-.32.13,20.63,30.34-.32-.13,17.27-30.34.13v20.44l50.59-.13,2.73,17.71h-68.24v-91.03Z"/>
      <path class="cls-6" d="M293.06,889.07h14.98v76.11h42.78v-76.11h14.98v78.01c0,1.78-.34,3.46-1.02,5.05-.68,1.59-1.61,2.97-2.79,4.16-1.19,1.19-2.58,2.12-4.19,2.79-1.61.68-3.3,1.02-5.08,1.02h-46.59c-1.78,0-3.47-.34-5.08-1.02-1.61-.68-3.01-1.61-4.19-2.79-1.19-1.18-2.12-2.57-2.79-4.16-.68-1.59-1.02-3.27-1.02-5.05v-78.01Z"/>
      <path class="cls-6" d="M449.72,921.57c0,6.94-2.16,11.98-6.47,15.11-6.01,4.44-12.7,6.64-20.06,6.6l26.53,36.82h-18.28l-22.34-36.37h-14.35v36.37h-12.95v-91.03h45.2c15.15,0,22.72,7.38,22.72,22.15v10.35ZM394.75,930.72l23.11-.19c5.92-.04,9.99-.8,12.19-2.29,3.89-2.67,5.84-4.44,5.84-5.33v-10.09c0-3.38-.85-5.92-2.54-7.62-2.12-2.07-4.49-3.11-7.11-3.11h-31.48v28.63Z"/>
      <path class="cls-6" d="M543.6,958.9c-.13,7.28-.44,11.68-.95,13.2-.42,1.35-1.35,2.75-2.79,4.19-1.02,1.02-2.58,1.9-4.7,2.67-1.99.72-5.44,1.08-10.35,1.08l-41.13.06c-1.78,0-4.3-.34-7.55-1.02-3.72-.76-5.95-1.69-6.67-2.79-1.44-2.2-2.37-3.58-2.79-4.13-.68-.97-1.04-5.4-1.08-13.27l-.13-26.53c0-13.41.13-21.46.38-24.12.04-3.89.4-7.66,1.08-11.3.21-1.18,1.06-2.54,2.54-4.06.97-1.02,3.19-1.95,6.67-2.79,2.83-.68,5.35-1.02,7.55-1.02l41.13-.06c5.25-.04,8.7.28,10.35.95,1.95.76,3.51,1.74,4.7,2.92,1.31,1.27,2.33,2.65,3.05,4.13.59,1.19.91,4.93.95,11.24l.25,25.26c0,12.23-.17,20.69-.51,25.39ZM481.14,904.06v60.75h47.35v-60.75h-47.35Z"/>
    </g>
    <g class="cls-4">
      <path class="cls-3" d="M558.61,980.1v-91.03l47.54.38c3.72,0,8.12.97,13.2,2.92,3.89,1.52,7.24,3.68,10.03,6.47,3.05,3.05,5.21,6.39,6.47,10.03,1.52,4.57,2.26,8.95,2.22,13.14l-.06,26.22c0,4.91-.76,9.29-2.29,13.14-1.52,3.94-3.66,7.29-6.41,10.06s-6.08,4.91-10,6.41c-3.92,1.5-8.31,2.25-13.17,2.25h-47.54ZM605.08,963.15c7.45,0,12.1-1.02,13.96-3.05,3.22-3.47,4.85-8.74,4.89-15.81l.19-21.2c.04-2.88-.57-5.52-1.84-7.93-1.27-2.33-2.72-4.31-4.35-5.93-1.63-1.63-3.61-2.87-5.94-3.71-2.33-.85-4.57-1.27-6.73-1.27h-32.37v58.91h32.18Z"/>
      <path class="cls-3" d="M656.94,889.07h68.24l-2.09,15.62-51.23-.32.13,20.63,30.34-.32-.13,17.27-30.34.13v20.44l50.59-.13,2.73,17.71h-68.24v-91.03Z"/>
      <path class="cls-3" d="M756.09,939.28c-1.69-.04-3.39-.4-5.08-1.08-1.61-.68-3-1.6-4.19-2.76-1.18-1.16-2.12-2.54-2.79-4.12-.68-1.59-1.02-3.27-1.02-5.05v-24.18c0-1.78.34-3.46,1.02-5.05.68-1.59,1.61-2.96,2.79-4.13,1.18-1.16,2.58-2.09,4.19-2.79,1.61-.7,3.3-1.05,5.08-1.05h44.18c1.78,0,3.45.34,5.01,1.02,1.57.68,2.94,1.61,4.13,2.79,1.61,1.57,2.54,2.96,2.79,4.19l1.02,5.01-.13,10.16-13.46,4.13v-11.74h-43.54v21.65l44.18.76c1.78.04,3.43.38,4.95,1.02,1.61.68,3,1.61,4.19,2.79,1.18,1.19,2.12,2.57,2.79,4.16.68,1.59,1.02,3.27,1.02,5.05v27.04c0,1.78-.34,3.46-1.02,5.05-.68,1.59-1.61,2.97-2.79,4.16-1.18,1.19-2.56,2.12-4.13,2.79-1.57.68-3.24,1.02-5.01,1.02h-45.45c-1.78,0-3.47-.34-5.08-1.02-1.61-.68-3-1.61-4.19-2.79-1.18-1.18-2.12-2.57-2.79-4.16-.68-1.59-1.02-3.27-1.02-5.05v-11.68l14.35-2.48v11.68h43.54v-24.57l-43.54-.76Z"/>
      <path class="cls-3" d="M845.53,889.07v36.31l39.74-36.31h19.61l-46.72,41.58,48.69,49.45h-19.61l-41.7-42.59v42.59h-16.06v-91.03h16.06Z"/>
    </g>
  </g>
</svg>