<?xml version="1.0" encoding="UTF-8"?>
<svg id="Layer_1" xmlns="http://www.w3.org/2000/svg" xmlns:xlink="http://www.w3.org/1999/xlink" version="1.1" viewBox="0 0 1069.7 1031.8">
  <!-- Generator: Adobe Illustrator 29.4.0, SVG Export Plug-In . SVG Version: 2.1.0 Build 152)  -->
  <defs>
    <style>
      .st0, .st1, .st2, .st3, .st4, .st5, .st6, .st7, .st8, .st9 {
        isolation: isolate;
      }

      .st0, .st1, .st2, .st3, .st4, .st6, .st7, .st8 {
        font-family: Neurorich-Regular, Neurorich;
      }

      .st0, .st1, .st2, .st10 {
        fill: #101806;
      }

      .st0, .st3, .st7 {
        font-size: 130px;
      }

      .st1, .st4, .st6 {
        font-size: 130.1px;
      }

      .st2, .st8 {
        font-size: 72px;
      }

      .st11 {
        stroke-width: 5px;
      }

      .st11, .st12 {
        stroke: #fff;
      }

      .st11, .st12, .st13 {
        stroke-miterlimit: 10;
      }

      .st11, .st13 {
        fill: none;
      }

      .st3, .st4, .st14, .st8, .st12 {
        fill: #fff;
      }

      .st15, .st6, .st7 {
        fill: #6aa329;
      }

      .st16 {
        fill: url(#linear-gradient);
      }

      .st16, .st9, .st13, .st17 {
        display: none;
      }

      .st13 {
        stroke: #d1d3d4;
      }
    </style>
    <linearGradient id="linear-gradient" x1="262.4" y1="959.7" x2="822.7" y2="959.7" gradientTransform="translate(0 1203.7) scale(1 -1)" gradientUnits="userSpaceOnUse">
      <stop offset="0" stop-color="#ed1c24"/>
      <stop offset=".2" stop-color="#f26522"/>
      <stop offset=".4" stop-color="#ffde17"/>
      <stop offset=".6" stop-color="#6aa329"/>
      <stop offset=".8" stop-color="#21409a"/>
      <stop offset="1" stop-color="#7f3f98"/>
    </linearGradient>
  </defs>
  <rect id="Black_background" class="st17" y="25.8" width="1087" height="1028.2"/>
  <path id="Cutout" class="st13" d="M1020.1,895.5h-199.9c-16,0-24.2-19.4-13-30.8,86.9-87.8,141.9-217.5,141.9-362.2,0-264.5-183.7-478.9-410.3-478.9S128.6,238.1,128.6,502.6s55,274.4,141.9,362.2c11.3,11.4,3.1,30.8-13,30.8H49.6c-9.9,0-18,8.1-18,18v85.9c0,9.9,8.1,18,18,18h970.5c9.9,0,18-8.1,18-18v-85.9c0-9.9-8.1-18-18-18h0Z"/>
  <g id="Box_w_x2F_o_white" class="st17">
    <path class="st10" d="M205.8,432.6l-16.7,13.6-16.7,13.6-16.7,13.6c-8.1,6-.6,12.1,18.2,18.8s38.7,12.9,76.4,21.7c7.7-.9,3.1-1.8,9.3-.3s171.2,44.4,178.4,46.5,2,.3,2.9.2,1.8-.5,2.8-.9c4-2.5,10.3-7,17.8-13s16.5-13.6,26.3-21.9c9.8-8.3,22.4-19.1,30.9-26.3,8.6-7.2,11.6-9.6,14.2-11.5s1.8-1.5,2.6-2.5.9-1.4-.2-2l-1.5-.6c-.8-.3-2-.6-2.8-.8-7.7-1.2-25.7-5.8-49.3-11.9-23.7-6.1-53.3-14.1-83.8-21.9-31.7-8.1-64.5-16.2-92.9-22.5-28.5-6.3-53-10.6-67.8-11.2-1.8,0-3.7,0-5.4.5s-3.2.6-4.6,1.1-2.4,1.1-3.2,1.5-2.4,2-2.4,2l-15.8,13.6v.5h-.1.1q0,0,0,0h0Z"/>
    <path class="st10" d="M928.1,473.2c0-.1-.3-.5-.6-.6l-38.3-32-37.2-31.1c-.8-.6-1.7-.8-2.6-.6l-147.4,36s-108.1,27-146.5,35.8c-.5,0-3.2,1.1-3.8,1.5s-.6.3-.6.6l-.5,1.2v1.2c0,.5.2,1.2.5,1.8s1.8,2.5,2.1,2.8l41.2,31.5,40.4,33.1c1.4,1.1,5,3.7,7.2,5.4,2.1,1.7,6.3.6,7.8,0,9.7-3.2,31.7-8.7,60-16.1,28.3-7.3,62.9-17,97.4-25l14.2-3.7,12.4-3.2,2-.5s1.2.3,0,0c.8.3,1.7.5,2.5.5s1.7,0,2.5-.1l4.8-1.4,4.8-1.4c9.8-2.5,13-3.4,15.6-4.4,2.6-1.1,4.9-2,12.7-4.4,10-3.1,19.8-5.8,28-8.7s15.3-5.5,19.3-8.3c2.5-1.8,4-3.8,4.3-5.5s-1.4-3.8-2-4.8v.3h-.2c0,0,0,.1,0,.1h0Z"/>
    <path class="st10" d="M257.8,519.3h-1.8c-2.8.5-4.8,2.9-4.4,5.7l25.1,237.5c.3,2.1,1.7,3.7,3.4,4.3l248.9,89c.5.3,2.6,1.1,5.5,1.1s4-4.3,4-7v-358.3c0-.5-.6-.8-.9-.5l-92.9,73.9c-1.2.9-2.6,1.1-4.1.8l-182.6-46.4h-.2,0Z"/>
    <path class="st10" d="M644.4,565.8c-1.4.3-4,.3-4.9-.6,0,0-1.8-.9-2.6-1.7l-25.3-20.7-53-42.3-12.7-10c-.5-.3-1.1,0-1.1.5v361.3c0,2.6,2.3,3.8,4.8,3.8s3.5-.9,4-1.2l252-88.2h.3c.5-.8.8-1.4.9-2.3l25.7-243.3h0c0-1.2-.9-2.3-2.1-2.3h-.5l-182,46.2h0l-3.5.6h0v.2h0Z"/>
  </g>
  <g id="Box">
    <path id="Box_background" class="st14" d="M541.9,482.8c-.5-.3-3-.8-3.6-.8-19.9-.5-293-80.2-310.1-64.9-17.1,15.3-.6.9-1.1,1.2l-72.7,58.2c-13.6,10,28,27.2,88.6,42.4,2.1.5,9.3.9,8.5,3s-.4,1.5-.3,2.4l25.4,237.5c.3,2.1,1.6,3.7,3.4,4.3l250.1,90.2c2.2.8,4.3,0,5.2,0,1.3,0,5.4-3.4,5.4-6.3l.3,1.7c0,2.5,2.2,4.3,4.8,4.6s3.3-.3,3.7-.6l254.4-90c1.7-.6,2.8-2.1,3-3.9l25.6-238.6h0c-.6-5.5,1.8-3,6-4.9,60.6-15.3,104.5-32.5,88.9-43.7h0l-81.4-65.1c-.9-.8-2.1-.9-3.1-.8l-300.8,73.6"/>
    <g id="Box1">
      <path class="st10" d="M212.8,437.1l-16.3,13.3-16.3,13.3-16.3,13.3c-7.9,5.8-.6,11.8,17.8,18.4s37.9,12.6,74.7,21.2c7.5-.9,3-1.8,9.1-.3s167.3,43.4,174.4,45.5,2,.3,2.8.2,1.8-.5,2.7-.9c3.9-2.4,10-6.9,17.4-12.7,7.3-5.8,16.2-13.3,25.7-21.4s21.9-18.7,30.2-25.7c8.4-7,11.4-9.4,13.9-11.2s1.8-1.5,2.5-2.4.9-1.4-.2-2l-1.5-.6c-.8-.3-2-.6-2.7-.8-7.5-1.2-25.1-5.7-48.2-11.7-23-6-52.1-13.8-81.9-21.4s-63-15.9-90.8-22-51.8-10.3-66.3-10.9c-1.8,0-3.6,0-5.2.5s-3.1.6-4.5,1-2.4,1-3.1,1.5-2.4,2-2.4,2l-15.4,13.3v.5h-.1,0Z"/>
      <path class="st10" d="M919.1,476.8c0-.1-.3-.5-.6-.6l-37.4-31.3-36.4-30.4c-.8-.6-1.7-.8-2.5-.6l-144.1,35.2s-105.7,26.3-143.2,35c0,0-3.1,1-3.7,1.5s-.6.3-.6.6l-.5,1.2v1.2c0,.5.2,1.2.5,1.8s1.8,2.4,2.1,2.7l40.3,30.8,39.5,32.3c1.3,1,4.9,3.6,7,5.2s6.1.6,7.6,0c9.4-3.1,31-8.5,58.7-15.7s61.5-16.6,95.2-24.4l13.9-3.6,12.1-3.1,2-.5s1.2.3,0,0c.8.3,1.7.5,2.4.5s1.7,0,2.4-.2l4.6-1.3,4.6-1.4c9.6-2.4,12.7-3.3,15.3-4.3s4.8-2,12.4-4.3c9.7-3,19.3-5.7,27.4-8.5s15-5.4,18.9-8.1c2.4-1.8,3.9-3.7,4.2-5.4s-1.3-3.7-2-4.6v.3h-.1Z"/>
      <path class="st10" d="M263.7,521.7h-1.8c-2.7.5-4.6,2.8-4.3,5.5l24.5,232.1c.3,2.1,1.6,3.6,3.3,4.2l243.4,87c.5.3,2.5,1,5.4,1s3.9-4.2,3.9-6.9v-350.2c0-.5-.6-.8-.9-.5l-90.8,72.3c-1.2.9-2.5,1-4,.8l-178.5-45.3h-.2Z"/>
      <path class="st10" d="M641.6,567.2c-1.3.3-3.9.3-4.8-.6,0,0-1.8-.9-2.5-1.7l-24.7-20.2-51.8-41.3-12.4-9.7c-.5-.3-1,0-1,.5v353.2c0,2.5,2.2,3.7,4.6,3.7s3.4-.9,3.9-1.2l246.3-86.2h.3c.5-.8.8-1.3.9-2.2l25.1-237.8h0c0-1.2-.9-2.2-2.1-2.2h-.5l-178,45.2h0l-3.4.6h.1Z"/>
    </g>
  </g>
  <g id="Brain">
    <path id="Brain_background_2" class="st16" d="M454.8,62.3l-153.9,86.6c-10.8,6.1-18.4,16.6-21,28.8-12.7,62.8-34.5,82.9,5.4,143,5.8,8.7,14.5,15,24.7,17.5,72.4,18.9,93.4,13.3,138.3,77,10,14.2,27.7,21,44.8,17.1,33-7.8,77.6-31.2,101.6-42.6,6.9-3.1,14.4-4.6,21.9-3.9l107.8,9c4.3.3,8.7.1,13-.9,72.2-16.2,107.8-98.3,70-161.9-15.3-25.8-36.3-52-57.7-88.7-4.5-7.6-11.2-13.8-19.3-17.5-100.4-46.2-151.4-89-275.6-63.5"/>
    <path id="Brain_background" class="st12" d="M454.8,62.3l-153.9,86.6c-10.8,6.1-18.4,16.6-21,28.8-12.7,62.8-34.5,82.9,5.4,143,5.8,8.7,14.5,15,24.7,17.5,72.4,18.9,93.4,13.3,138.3,77,10,14.2,27.7,21,44.8,17.1,33-7.8,77.6-31.2,101.6-42.6,6.9-3.1,14.4-4.6,21.9-3.9l107.8,9c4.3.3,8.7.1,13-.9,72.2-16.2,107.8-98.3,70-161.9-15.3-25.8-36.3-52-57.7-88.7-4.5-7.6-11.2-13.8-19.3-17.5-100.4-46.2-151.4-89-275.6-63.5"/>
    <g id="Electrods">
      <path class="st15" d="M456.9,239.6c-1.5-5.1-5-6.9-7.5-7.5-.9-.1-1.8-.3-2.7-.3-3.5,0-7.2,1.5-9.4,4.1-1.8,1.9-3.6,5.4-2,10.3,1.5,5.1,5,6.9,7.5,7.5,4.2,1.1,9.3-.6,12.1-3.8,1.8-1.9,3.6-5.4,2-10.3h0Z"/>
      <path class="st15" d="M383.4,195h.1c-2.4-2.1-4.6-2.7-6.7-2.7s-2.5.3-3.6.6c-4,1.5-7.5,5.7-8.1,10-.5,2.6,0,6.4,4,9.6,4,3.4,7.9,3,10.3,1.9,4-1.5,7.3-5.7,7.9-9.9.5-2.6,0-6.4-4-9.6h.1q0,0,0,0h0Z"/>
      <path class="st15" d="M459,165.8h0c-.5,2.7,0,6.6,4,9.7,4.2,3.4,7.9,3,10.5,1.9,4-1.6,7.3-5.7,7.9-10,.5-2.6,0-6.4-4.2-9.6-2.4-2.1-4.6-2.7-6.7-2.7s-2.5.3-3.6.6c-4,1.5-7.5,5.7-8.1,10h.2q0,.1,0,.1Z"/>
      <path class="st15" d="M556.7,238.1c-2.4-2.1-4.7-2.7-6.7-2.7s-2.5.3-3.6.6c-4,1.5-7.5,5.7-8.1,10-.5,2.6,0,6.4,4,9.6,4.2,3.5,7.9,3,10.5,2,4-1.6,7.3-5.7,7.9-10h0c.5-2.4,0-6.3-4.2-9.4h.2q0-.1,0-.1Z"/>
      <path class="st15" d="M487.3,336.5h0c4-1.5,7.3-5.7,7.9-9.9.5-2.5,0-6.4-4-9.6-2.4-2.1-4.6-2.7-6.7-2.7s-2.5.3-3.6.6c-4,1.5-7.5,5.7-8.1,10-.5,2.5,0,6.4,4,9.6,4,3.5,7.9,3,10.3,2h.2Z"/>
      <path class="st15" d="M760.7,334.6c4,3.5,7.9,3,10.5,2,4-1.6,7.3-5.7,7.9-10,.5-2.5,0-6.4-4.2-9.6-2.4-2.1-4.7-2.7-6.7-2.7s-2.5.3-3.6.6c-4,1.5-7.5,5.7-8.1,10h0c-.5,2.7,0,6.6,4,9.7h.2,0Z"/>
      <path class="st15" d="M639.1,146c-1.5-5.1-5-6.7-7.5-7.3-.9,0-1.8-.3-2.7-.3-3.6,0-7.3,1.5-9.6,4.1-1.8,1.9-3.6,5.2-2,10.2,1.5,5.1,4.8,6.9,7.3,7.5,4.2,1.1,9.3-.4,12.3-3.8,1.8-1.9,3.6-5.4,2.1-10.3h0q0,0,0,0h.1Z"/>
      <path class="st15" d="M648,320.1c-2.1,0-2.5.3-3.6.6-4,1.5-7.5,5.7-8.1,10-.5,2.5,0,6.4,4,9.6,2.1,1.8,4.5,2.7,7.2,2.7,4.7,0,9.1-3.8,10.8-8.7,1.5-4.4,0-8.5-3.6-11.5h0c-2.4-2-4.7-2.7-6.7-2.7h0Z"/>
      <path class="st15" d="M376.9,286.5c4.6,0,9.1-3.8,10.8-8.7,1.5-4.4,0-8.5-3.6-11.5-2.4-2-4.6-2.7-6.7-2.7s-2.5.3-3.6.6c-4,1.5-7.5,5.7-8.1,10-.5,2.5,0,6.4,4,9.6h0c2.1,1.8,4.5,2.7,7.2,2.7h0Z"/>
      <path class="st15" d="M666.2,253.3c-.9-.1-1.8-.3-2.7-.3-3.5,0-7.2,1.5-9.4,4-1.8,2-3.6,5.4-2,10.3,1.5,5.1,5,6.9,7.5,7.5,4.2,1,9.3-.6,12.1-3.8,1.8-2,3.6-5.4,2-10.3-1.5-5.1-5-6.9-7.5-7.5h0q0,0,0,0h0Z"/>
    </g>
    <path id="Brain_foreground" class="st10" d="M811.6,238.3c-.6-1.2-2.8-1.4-3.8-.3l-22.3,23.1c-1.3,1.4-4.3,5.2-5.1,8.2l-7,39.7c0,1,.5,1.8,1.2,2.4,1.2,1,1.2,1.5,2.4,2.4,4.5,3.6,6.6,8.4,5.8,13.8-.9,6-5.2,11.4-10.8,13.5-1.8.6-3.5,1-5.2,1-3.5,0-6.7-1.2-9.6-3.8-4.5-3.5-6.4-8.4-5.7-13.8.9-6,5.2-11.4,10.9-13.5,1-.5,2.1-.6,3.2-.8,1,0,1.8-.9,2-1.8l7-40.8v-.3c1.2-4.4,2.8-7.6,4.3-8.8l24.9-25.6c1-1.1,2.5-2.9,2.1-3.8-.5-.8-35.8-49.8-57.2-86.5-4.5-7.6-7-9.1-13.6-14.4-2.5-1.5-2.1-2.4-6.6-4.5,0,0-5.1-3.2-5.1-1.5l-9.6,129.2v.4c-.6.8,0,6.9-9.4,9.9h-.2l-23.4,2.5c-1.2,0-2.1.9-2.2,2-.3,3-1.8,4-3.9,6.3-3.2,3.5-8.1,5.5-12.7,5.5s-2.5,0-3.8-.5c-5.2-1.2-9.1-5-10.8-10.5-1.8-5.4-.8-10.6,3-14.7,4-4.4,10.6-6.4,16.5-5.1,4.8,1.1,8.5,4.4,10.3,9.1.3.9,1.2,1.4,2.1,1.4l19.3-1.6h0c6.7-1.5,8.8-3.4,9.7-10.6l9.4-124.5c0-1.5-7.2-5.1-6.6-4.8-26.7-12.9-50.3-25.2-73.4-35.4h-.3c-.3,0-.5.3-.5.6l-3.6,49.2c0,1.2.6,2.7,1.8,3,5.2,1.2,6.7,4.2,8.4,9.7,1.8,5.6.8,10.8-3,14.7h0c-3.3,3.3-8.1,5.4-12.9,5.4s-4.5-.6-5.7-1.1c-5.2-1.2-7-4.4-8.7-9.9-1.8-5.4-.8-10.5,2.8-14.5,2.7-2.9,6.3-4.8,10.2-5.4,1-.1,1.7-2.1,1.7-3.1l3.8-50.9v-.3l-.3-.3h0c-22.8-9.7-65.5-19.2-76.6-21.6-1.3-.3-3.9-.5-3.8.8.8,15.9,5,101.9,5.5,112.8.2,4.5-.2,6.3-2,8.8s-2.7,3-4.3,4.2l-87.2,54.7-.9.6c1,4.9,0,9.4-3.5,13-3.1,3.4-8.1,5.6-12.7,5.6s-4.5-.5-6.3-1.2h0c-4.6-2.4-6.6-4.4-8.2-9.7-1.8-5.4-.8-10.6,3-14.7,4-4.4,10.6-6.4,16.5-5.1,2.7.9,4.8,2.2,6.4,3.9.8,1.1,2,3.4,3.6,2.6l85.3-53.3c4.2-3.1,5-6,4.7-9.3l-4.8-112.7c0-2.1-1.3-2.2-2-2.5s-54.2-.6-89.3,6.6c-.1,0-.5,0-.6.3-1.4.8-2.1,2.1-2.2,3.6v1.7l-3.9,39.1c0,.9,0,1.5.6,3l19.5,39.4c.5.8,1.2,1.4,2.1,1.2,3.8-.3,7.2.9,10.5,3.6,4.5,3.6,6.6,8.4,5.8,13.8-.9,6-5.2,11.4-10.8,13.5-1.8.6-3.5,1.1-5.2,1.1-3.5,0-6.7-1.2-9.6-3.8-4.5-3.4-6.4-8.4-5.7-13.8.6-4.8,3.6-9.1,7.8-11.8.9-.6,1.4-1.8.8-2.9l-19-39.1c-.5-.8-.6-2.6-.6-3.6.5-4.2,2.7-27.3,3.6-37.2.1-1.8-1.8-3-3.3-2.1l-143.7,80.9c-10.8,6.1-18.4,16.6-21,28.8-4,19.6-8.8,35.1-12.4,48.9s.5,4.2,2.4,5.1l21,10,19.6,9c.5.1,1.2,1.1,4.5.8,2-.3,2.9-.6,6.3-3.1h0l21.6-18.7,18.7-15.1c.5-.3,1.4-1.4,1.5-1.9,0-.4-.5-1.1-.8-1.5-.9-1.5-.9-1.9-1.4-3.6-.3-1.6-.5-3.4-.1-5.1.5-3,1.8-5.8,3.8-8.2s4.4-4.2,7.2-5.2c2.5-.9,5.1-1.2,7.6-.8s5,1.6,7,3.4c2.2,1.8,3.9,3.9,4.8,6.1s1.2,4.8.8,7.5l-.6,2.7h0c-.8,2.4-2.2,4.6-3.9,6.4-1.8,1.8-3.9,3.3-6.1,4.2-.9.3-1.8.6-2.7.8s-1.6.3-2.7.3-2.5-.1-3.8-.6c-1.2-.3-2.4-.9-3.6-1.6-.5-.3-.9-.3-1.4-.3s-.9.1-1.2.6l-23.1,19.2-20.1,16.6c-.3.3-3.8,3-7.3,3.9-3.6.8-7.6-1.1-8.1-1.2l-17.8-8.4-20.8-9.7-1.5-.9h0c-1-.6-2.4,0-2.7,1.2-5,24.9-3,46.5,20.7,82.1,3.6,5.2,10.6,10.8,13.2,12.6s1.2.3,1.8,0l61.1-50.4c.8-.6,1-1.6.8-2.5-.8-2.2-1.2-4.5-.8-6.9.9-6,5.2-11.4,10.9-13.5,5.1-2,10.3-.9,14.7,2.7,5.2,4.2,7.2,10.3,5.1,16.5-2.2,6.7-8.4,11.5-15,11.7-3.9,0-7.3-1.4-10-3.8-.1,0-.3-.3-.5-.5-.8-.8-2-.8-2.9,0l-59,48.1c-.6.5-.5,1.5.3,1.8,1.6.6,3.9,1.4,5.2,1.6,57.1,14.8,80.9,13.2,111,43.8,1.4,1.4,3.5.6,3.8-.5l2.5-13.2c.8-5,1.4-6.6,3.8-8.4,0,0,30.4-16.8,38.5-24.9s.3-1,.3-1c-2.1-5.8-2-4.6-1.2-10,.9-6,5.2-11.4,10.9-13.5,5.1-2,10.3-.9,14.7,2.7,4.5,3.6,6.6,8.4,5.7,13.8-.9,6-5.2,11.4-10.8,13.5-1.8.6-3.5,1-5.2,1h-3.1c-2-.3-3.6-1.5-4.4-2.1-.3-.1-.6-.3-.9,0l-38.4,24.4c-1.5.9-2.5,2.4-2.9,4s-.5,2.4-.9,4l-3.3,16.6v2.2c6.3,7.5,10.9,14.2,18.4,24.9,10,14.2,27.7,21,44.8,17.1,31-7.3,72.4-28.5,97.3-40.5,1.2-.6,1.7-2.1.9-3.3l-42.1-62.9c-2-2.7-3.6-9.9-3.5-13.2v-48.9c.2-.9-.5-1.8-1.2-2.1-1.8-.6-3.5-1.5-5.1-2.9-4.5-3.4-6.4-8.4-5.7-13.8.9-6,5.2-11.4,10.9-13.5,5.1-1.9,10.3-.9,14.7,2.7,4.5,3.6,6.6,8.4,5.8,13.8-.9,6-5.2,11.4-10.8,13.5-.8.3-1.3.5-2.1.6-1,.3-1.8,1.2-1.8,2.2l.5,48.4c0,2.1,2.5,9.9,3.5,10.8l41.7,64c.6.9,1.7,1.2,2.7.9,5.8-2.1,12-3,18.1-2.4l46.6,3.8c1.5-.1,1.3-.6,1-1.4l-15.1-40.5c-.3-.9-1.3-1.5-2.4-1.5h-.8c-3.8-.8-5.4-2-8.5-3.8h0c-4.5-3.6-6.4-8.4-5.7-13.8.9-6,5.2-11.4,10.9-13.5,5.1-2,10.3-.9,14.7,2.7,5.2,4.2,7.2,10.3,5.1,16.5-1.3,3.8-2.7,6-5.7,8.1-.9.6-.9,2.5-.5,3.5l16,42.9c.3.8,1,1.4,2,1.5l50.1,4c4.3.3,8.7,0,13-.9,69.8-15.6,106.1-92.8,74.3-155.3l-1,.4h0l.3.4h0Z"/>
    <path id="Brain_outline" class="st11" d="M454.8,62.3l-153.9,86.6c-10.8,6.1-18.4,16.6-21,28.8-12.7,62.8-34.5,82.9,5.4,143,5.8,8.7,14.5,15,24.7,17.5,72.4,18.9,93.4,13.3,138.3,77,10,14.2,27.7,21,44.8,17.1,33-7.8,77.6-31.2,101.6-42.6,6.9-3.1,14.4-4.6,21.9-3.9l107.8,9c4.3.3,8.7.1,13-.9,72.2-16.2,107.8-98.3,70-161.9-15.3-25.8-36.3-52-57.7-88.7-4.5-7.6-11.2-13.8-19.3-17.5-100.4-46.2-151.4-89-275.6-63.5"/>
  </g>
  <g class="st9">
    <text class="st1" transform="translate(47.7 1003.6)"><tspan x="0" y="0">NEURO</tspan></text>
    <text class="st6" transform="translate(499.6 1003.6)"><tspan x="0" y="0">DESK</tspan></text>
    <text class="st2" transform="translate(854.7 1003.6)"><tspan x="0" y="0">.ORG</tspan></text>
  </g>
  <g id="NEURODESK.ORG_on_dark" class="st9">
    <text class="st4" transform="translate(47.7 1003.6)"><tspan x="0" y="0">NEURO</tspan></text>
    <text class="st6" transform="translate(499.6 1003.6)"><tspan x="0" y="0">DESK</tspan></text>
    <text class="st8" transform="translate(854.7 1003.6)"><tspan x="0" y="0">.ORG</tspan></text>
  </g>
  <g class="st5">
    <text class="st0" transform="translate(131.7 1003.2)"><tspan x="0" y="0">NEURO</tspan></text>
    <text class="st7" transform="translate(583.3 1003.2)"><tspan x="0" y="0">DESK</tspan></text>
  </g>
  <g id="NEURODESK_on_dark" class="st9">
    <text class="st3" transform="translate(130.7 1003.8)"><tspan x="0" y="0">NEURO</tspan></text>
    <text class="st7" transform="translate(582.3 1003.8)"><tspan x="0" y="0">DESK</tspan></text>
  </g>
</svg>